# xmcd CD database file
#
# Track frame offsets:
#	150
#	25260
#	49565
#	74652
#	97677
#	127067
#	147457
#	176215
#	196242
#	216077
#	233332
#	255735
#	279837
#
# Disc length: 4037 seconds
#
# Revision: 0
# Processed by: cddbd v1.5.1PL0 Copyright (c) Steve Scherf et al.
# Submitted via: CDex 1.51
#
DISCID=b90fc30d
DTITLE=THUNDER - Back Street Symphony
DYEAR=1990
DGENRE=Hard Rock
TTITLE0=She's So Fine
TTITLE1=Dirty Love
TTITLE2=Don't Wait For Me
TTITLE3=Higher Ground
TTITLE4=Until My Dying Day
TTITLE5=Back Street Symphony
TTITLE6=Love Walked
TTITLE7=An Englishman On Holiday
TTITLE8=Girl's Going Out Of Her Head
TTITLE9=Gimme Some Lovin'
TTITLE10=Distant Thunder
TTITLE11=Saturday Night Alright (For Fighting) (Studio LIVE)
TTITLE12=Broken In Two (DEMO)
EXTD=YEAR: 1990
EXTT0=
EXTT1=
EXTT2=
EXTT3=
EXTT4=
EXTT5=
EXTT6=
EXTT7=
EXTT8=
EXTT9=
EXTT10=
EXTT11=
EXTT12=
PLAYORDER=
